<svg width="40" height="41" viewBox="0 0 40 41" xmlns="http://www.w3.org/2000/svg">
    <g transform="translate(0 .8)">
        <path
            d="M20 0c11.046 0 20 8.954 20 20s-8.954 20-20 20S0 31.046 0 20 8.954 0 20 0zm-6.103 16.076h-4.36v13.951h4.36v-13.95zm6.96 1.88v-1.88h-4.333v13.951h4.333v-7.323c0-4.072 5.257-4.405 5.257 0v7.323h4.35v-8.833c0-6.871-7.78-6.62-9.608-3.239zm-9.14-7.983a2.171 2.171 0 00-2.163 2.18 2.17 2.17 0 002.163 2.18 2.17 2.17 0 002.162-2.18c0-1.204-.968-2.18-2.162-2.18z"
            fill="#10466A"/>
    </g>
</svg>
